<svg width="70" height="70" viewBox="0 0 58 58" fill="none" xmlns="http://www.w3.org/2000/svg">
<g filter="url(#filter0_d_0_1)">
<circle cx="29" cy="29" r="25" fill="blue"/>
</g>
<path fill-rule="evenodd" clip-rule="evenodd" d="M29.5 20C30.4389 20 31.2 20.7611 31.2 21.7V26.8H36.3C37.2389 26.8 38 27.5611 38 28.5C38 29.4389 37.2389 30.2 36.3 30.2H31.2V35.3C31.2 36.2389 30.4389 37 29.5 37C28.5611 37 27.8 36.2389 27.8 35.3V30.2H22.7C21.7611 30.2 21 29.4389 21 28.5C21 27.5611 21.7611 26.8 22.7 26.8H27.8V21.7C27.8 20.7611 28.5611 20 29.5 20Z" fill="white"/>
<defs>
<filter id="filter0_d_0_1" x="0" y="0" width="58" height="58" filterUnits="userSpaceOnUse" color-interpolation-filters="sRGB">
<feFlood flood-opacity="0" result="BackgroundImageFix"/>
<feColorMatrix in="SourceAlpha" type="matrix" values="0 0 0 0 0 0 0 0 0 0 0 0 0 0 0 0 0 0 127 0" result="hardAlpha"/>
<feOffset/>
<feGaussianBlur stdDeviation="2"/>
<feComposite in2="hardAlpha" operator="out"/>
<feColorMatrix type="matrix" values="0 0 0 0 0 0 0 0 0 0 0 0 0 0 0 0 0 0 0.25 0"/>
<feBlend mode="normal" in2="BackgroundImageFix" result="effect1_dropShadow_0_1"/>
<feBlend mode="normal" in="SourceGraphic" in2="effect1_dropShadow_0_1" result="shape"/>
</filter>
</defs>
</svg>
